<svg height="511pt" viewBox="0 -37 511.99974 511" width="511pt" xmlns="http://www.w3.org/2000/svg"><g fill="#b5d9ff"><path d="m355.75 399.261719h-106.476562c-8.375 0-15.167969-6.792969-15.167969-15.167969 0-8.378906 6.792969-15.167969 15.167969-15.167969h106.476562c8.375 0 15.167969 6.789063 15.167969 15.167969 0 8.375-6.792969 15.167969-15.167969 15.167969zm0 0"/><path d="m466.488281 399.261719h-32.53125c-8.375 0-15.167969-6.792969-15.167969-15.167969 0-8.378906 6.792969-15.167969 15.167969-15.167969h32.53125c8.378907 0 15.167969 6.789063 15.167969 15.167969 0 8.375-6.789062 15.167969-15.167969 15.167969zm0 0"/><path d="m508.992188 85.980469c-2.863282-3.839844-7.371094-6.101563-12.160157-6.101563h-386.042969l-20.410156-68.539062c-1.917968-6.433594-7.828125-10.839844-14.539062-10.839844h-60.671875c-8.375 0-15.167969 6.792969-15.167969 15.167969 0 8.378906 6.792969 15.167969 15.167969 15.167969h49.363281l20.3125 68.210937c.0625.226563.128906.449219.199219.667969l53.960937 181.183594c-30.800781 2.074218-55.226562 27.796874-55.226562 59.117187 0 15.835937 6.164062 30.714844 17.347656 41.882813 11.183594 11.199218 26.0625 17.363281 41.898438 17.363281h28.054687c8.375 0 15.167969-6.792969 15.167969-15.167969 0-8.378906-6.792969-15.167969-15.167969-15.167969h-28.054687c-7.726563 0-14.980469-3.007812-20.445313-8.480469-5.457031-5.449218-8.464844-12.707031-8.464844-20.433593 0-15.941407 12.96875-28.910157 28.910157-28.910157h16.042968c.082032 0 .164063.003907.242188.003907h277.691406c6.710938 0 12.625-4.410157 14.539062-10.839844l59.828126-200.890625c1.367187-4.589844.488281-9.554688-2.375-13.394531zm-359.253907 124.679687h73.230469v70.105469h-52.351562zm103.566407 0h81.90625v70.105469h-81.90625zm0-30.335937v-70.109375h81.90625v70.109375zm-30.335938-70.109375v70.109375h-82.265625l-20.878906-70.109375zm202.722656 170.550781h-60.144531v-70.105469h81.023437zm29.914063-100.441406h-90.058594v-70.109375h110.941406zm0 0"/></g><path d="m210.179688 438.367188c-29.925782 0-54.273438-24.347657-54.273438-54.273438 0-29.921875 24.347656-54.265625 54.273438-54.265625 29.921874 0 54.265624 24.34375 54.265624 54.265625 0 29.925781-24.34375 54.273438-54.265624 54.273438zm0-78.199219c-13.199219 0-23.933594 10.730469-23.933594 23.925781 0 13.199219 10.734375 23.933594 23.933594 23.933594 13.195312 0 23.925781-10.734375 23.925781-23.933594 0-13.195312-10.730469-23.925781-23.925781-23.925781zm0 0" fill="#4fd9e0"/><path d="m394.851562 438.367188c-29.925781 0-54.273437-24.347657-54.273437-54.273438 0-29.921875 24.347656-54.265625 54.273437-54.265625 29.929688 0 54.273438 24.34375 54.273438 54.265625 0 29.925781-24.34375 54.273438-54.273438 54.273438zm0-78.199219c-13.195312 0-23.933593 10.730469-23.933593 23.925781 0 13.199219 10.738281 23.933594 23.933593 23.933594 13.199219 0 23.9375-10.734375 23.9375-23.933594 0-13.195312-10.738281-23.925781-23.9375-23.925781zm0 0" fill="#4fd9e0"/></svg>